<svg width="632" height="111" viewBox="0 0 632 111" fill="none" xmlns="http://www.w3.org/2000/svg">
<g clip-path="url(#clip0_129_47286)">
<g clip-path="url(#clip1_129_47286)">
<path d="M78.4572 0C47.9556 0 23.1995 24.7562 23.1995 55.2578C23.1995 85.7594 47.9556 110.516 78.4572 110.516C108.959 110.516 133.715 85.7594 133.715 55.2578C133.715 24.7562 109.043 0 78.4572 0ZM78.4572 95.7294C56.1513 95.7294 38.0701 77.6481 38.0701 55.3423C38.0701 33.0364 56.1513 14.9551 78.4572 14.9551C100.763 14.9551 118.844 33.0364 118.844 55.3423C118.844 77.6481 100.763 95.7294 78.4572 95.7294Z" fill="#F39332"/>
<path d="M170.3 28.8117L0.386597 90.8288V78.2395L170.3 16.2224V28.8117Z" fill="#227DBD"/>
<path d="M133.124 110.6C153.486 110.6 170.047 94.0394 170.047 73.6768C170.047 64.8897 166.92 56.7784 161.766 50.4415L149.177 55.0041C154.416 59.4822 157.711 66.2415 157.711 73.6768C157.711 87.28 146.727 98.264 133.124 98.264C119.52 98.264 108.536 87.28 108.536 73.6768C108.536 72.325 108.621 71.0576 108.874 69.7057L96.285 74.2683C96.623 94.4619 113.014 110.6 133.124 110.6Z" fill="white"/>
<path d="M108.536 73.6767C108.536 87.28 119.52 98.2639 133.124 98.2639C146.727 98.2639 157.711 87.28 157.711 73.6767C157.711 66.2415 154.416 59.5666 149.177 55.004L108.79 69.7056C108.621 71.0575 108.536 72.4094 108.536 73.6767Z" fill="#227DBD"/>
<path d="M149.177 55.0888C142.418 46.2171 131.687 40.4717 119.605 40.4717C99.0733 40.4717 82.4283 57.1166 82.4283 77.6482C82.4283 78.2396 82.4283 78.831 82.5128 79.4225L149.177 55.0888Z" fill="#E3001F"/>
<path d="M11.0326 26.446V42.4149L23.1994 37.9369V110.6H39.5064V16.1379L11.0326 26.446Z" fill="white"/>
<path d="M149.177 18.5036L31.3951 61.4255V55.7646L149.177 12.8427V18.5036Z" fill="#E3001F"/>
</g>
<g clip-path="url(#clip2_129_47286)">
<path d="M193.791 93.2401V107.783H190.703V96.7149L188.772 98.1306V95.0419L191.217 93.3688H193.791V93.2401Z" fill="white"/>
<path d="M208.077 94.527C209.492 96.0714 209.621 98.5166 209.621 100.447C209.621 102.377 209.492 104.823 208.077 106.367C207.433 107.139 206.275 107.911 204.473 107.911C202.671 107.911 201.513 107.139 200.87 106.367C199.454 104.823 199.325 102.377 199.325 100.447C199.325 98.5166 199.454 96.0714 200.87 94.527C201.513 93.7548 202.671 92.9827 204.473 92.9827C206.275 92.9827 207.562 93.7548 208.077 94.527ZM206.403 99.4174C206.403 98.0018 206.403 96.7148 205.76 96.0714C205.374 95.5566 204.859 95.4279 204.473 95.4279C204.087 95.4279 203.572 95.5566 203.186 96.0714C202.543 96.7148 202.543 98.1305 202.543 99.4174V101.477C202.543 102.892 202.543 104.179 203.186 104.823C203.572 105.337 204.087 105.466 204.473 105.466C204.859 105.466 205.374 105.337 205.76 104.823C206.403 104.179 206.403 102.764 206.403 101.477V99.4174Z" fill="white"/>
<path d="M220.946 94.527C222.362 96.0714 222.49 98.5166 222.49 100.447C222.49 102.377 222.362 104.823 220.946 106.367C220.303 107.139 219.144 107.911 217.343 107.911C215.541 107.911 214.383 107.139 213.739 106.367C212.323 104.823 212.195 102.377 212.195 100.447C212.195 98.5166 212.323 96.0714 213.739 94.527C214.383 93.7548 215.541 92.9827 217.343 92.9827C219.144 92.9827 220.303 93.7548 220.946 94.527ZM219.273 99.4174C219.273 98.0018 219.273 96.7148 218.629 96.0714C218.243 95.5566 217.729 95.4279 217.343 95.4279C216.956 95.4279 216.442 95.5566 216.056 96.0714C215.412 96.7148 215.412 98.1305 215.412 99.4174V101.477C215.412 102.892 215.412 104.179 216.056 104.823C216.442 105.337 216.956 105.466 217.343 105.466C217.729 105.466 218.243 105.337 218.629 104.823C219.273 104.179 219.273 102.764 219.273 101.477V99.4174Z" fill="white"/>
<path d="M234.588 95.6853L234.459 98.3879C234.33 101.605 234.073 103.021 234.073 103.407C233.816 104.437 233.43 105.466 232.786 106.367C232.143 107.139 230.856 108.04 228.797 108.04L228.41 105.466C229.955 105.209 230.47 104.437 230.727 103.922C231.113 103.021 231.242 101.991 231.37 100.833C231.499 99.2888 231.499 97.8731 231.628 96.3288L231.756 93.3688H240.508V107.911H237.29V95.9427H234.588V95.6853Z" fill="white"/>
<path d="M252.734 95.6854H247.586V98.9028H252.734V101.348H247.586V105.209H253.506V107.654H244.369V93.1115H252.734V95.6854Z" fill="white"/>
<path d="M258.268 107.654V95.6854H254.536V93.1115H265.346V95.6854H261.485V107.654H258.268Z" fill="white"/>
<path d="M279.76 97.8731C279.889 97.2296 279.889 96.3288 279.374 95.9427C279.116 95.6853 278.602 95.4279 277.701 95.4279C277.057 95.4279 276.414 95.5566 275.899 96.2001C275.256 97.1009 275.127 98.5166 275.127 99.8035V100.962C275.127 102.12 275.256 103.664 276.028 104.437C276.414 104.951 277.315 105.337 278.344 105.337C278.988 105.337 279.889 105.209 280.532 104.951C281.047 104.694 281.562 104.437 281.948 104.051L283.235 106.238C282.463 106.753 281.69 107.139 281.047 107.397C280.661 107.525 279.503 107.911 278.216 107.911C275.77 107.911 274.226 106.882 273.454 105.981C272.038 104.308 271.781 102.12 271.781 100.447C271.781 98.6453 272.038 96.3287 273.454 94.7844C274.87 93.24 276.671 92.9827 277.958 92.9827C278.602 92.9827 280.403 92.9827 281.562 93.7548C282.849 94.527 283.363 96.2001 282.849 97.7444L279.76 97.8731Z" fill="white"/>
<path d="M296.362 94.7844C297.777 96.4575 298.035 98.774 298.035 100.318C298.035 101.991 297.906 104.308 296.362 105.852C295.59 106.753 294.174 107.783 291.729 107.783C289.283 107.783 287.868 106.753 287.096 105.852C285.68 104.179 285.423 101.863 285.423 100.318C285.423 98.6453 285.551 96.3288 287.096 94.7844C287.868 93.8836 289.283 92.854 291.729 92.854C294.174 92.9827 295.59 94.0123 296.362 94.7844ZM294.56 99.6749C294.56 98.774 294.56 97.101 293.788 96.2001C293.53 95.9427 292.887 95.4279 291.729 95.4279C290.699 95.4279 290.056 95.814 289.669 96.2001C289.155 96.8436 288.897 98.0018 288.897 99.6749V101.091C288.897 102.892 289.155 104.051 289.669 104.565C290.056 104.951 290.699 105.337 291.729 105.337C292.758 105.337 293.402 104.951 293.788 104.565C294.303 103.922 294.56 102.764 294.56 101.091V99.6749Z" fill="white"/>
<path d="M304.083 99.0314H305.242C305.756 99.0314 306.4 98.9027 306.786 98.3879C306.915 98.1305 307.172 97.7445 307.172 97.2297C307.172 96.8436 307.172 96.3288 306.786 95.9427C306.4 95.4279 305.885 95.4279 305.37 95.4279C304.984 95.4279 304.598 95.4279 304.083 95.6853C303.311 96.2001 303.311 96.9723 303.44 97.4871L300.609 97.2297C300.094 95.9427 300.609 94.3984 301.896 93.6262C302.925 92.9827 304.083 92.854 305.242 92.854C306.143 92.854 308.073 92.9827 309.36 94.0123C310.261 94.7845 310.647 95.6853 310.647 96.8436C310.647 97.4871 310.518 98.1305 310.132 98.6453C309.617 99.4175 308.974 99.8036 308.33 99.9323C309.103 100.061 309.875 100.576 310.39 101.091C310.904 101.605 311.033 102.377 311.033 103.15V103.278C311.033 104.694 310.261 105.724 309.36 106.496C307.944 107.525 306.4 107.654 305.113 107.654C303.955 107.654 302.925 107.525 301.896 107.011C300.866 106.496 299.965 105.852 299.708 105.724L301.252 103.664C301.638 104.051 302.153 104.437 303.054 104.823C303.955 105.209 304.856 105.209 305.113 105.209C306.4 105.209 307.043 104.823 307.301 104.437C307.687 104.051 307.687 103.536 307.687 103.278C307.687 102.764 307.687 102.12 307.043 101.734C306.4 101.348 305.756 101.219 305.242 101.219H303.955V99.0314H304.083Z" fill="white"/>
<path d="M324.16 105.209H325.833V110.485H322.873V107.654H315.409V110.485H312.449V105.209H313.607C314.379 104.179 314.765 103.278 315.023 101.863C315.537 99.8036 315.666 97.6158 315.666 96.5862V93.1115H324.16V105.209ZM320.942 95.6854H318.369V97.3584C318.24 99.5462 318.111 101.091 317.854 102.249C317.596 103.536 317.082 104.565 316.696 105.209H320.942V95.6854Z" fill="white"/>
<path d="M339.99 107.654H336.515L335.099 104.179H330.723L329.436 107.654H326.477L332.01 93.1115H334.456L339.99 107.654ZM334.327 101.734L333.812 100.318C333.555 99.6749 333.297 98.9027 332.911 97.4871H332.783C332.525 98.2593 332.268 99.4175 331.882 100.447L331.496 101.605H334.327V101.734Z" fill="white"/>
<path d="M346.939 93.2401C347.969 93.2401 349.642 93.2401 350.8 94.141C351.572 94.7845 352.087 95.6854 352.087 97.101C352.087 97.4871 351.958 98.2593 351.572 98.9028C351.186 99.5462 350.671 99.9323 350.156 100.061C350.671 100.19 351.315 100.447 351.83 101.219C352.344 101.863 352.473 102.635 352.473 103.278C352.473 104.694 351.83 105.852 351.186 106.496C350.028 107.525 348.226 107.654 346.939 107.654H341.92V93.1115H346.939V93.2401ZM345.266 98.9028H346.939C347.454 98.9028 348.097 98.9027 348.483 98.388C348.741 98.1306 348.87 97.7445 348.87 97.3584C348.87 96.9723 348.87 96.4575 348.483 96.0714C348.097 95.6853 347.583 95.6854 347.197 95.6854H345.266V98.9028ZM345.266 105.209H347.197C347.583 105.209 348.226 105.209 348.741 104.694C348.998 104.437 349.256 103.922 349.256 103.278C349.256 102.506 348.87 102.12 348.612 101.863C348.097 101.477 347.454 101.477 346.939 101.477H345.266V105.209Z" fill="white"/>
<path d="M367.53 107.654H364.056L362.64 104.179H358.264L356.977 107.654H354.017L359.551 93.1115H361.997L367.53 107.654ZM361.868 101.734L361.353 100.318C361.096 99.6749 360.838 98.9027 360.452 97.4871C360.195 98.2593 359.937 99.4175 359.551 100.447L359.165 101.605H361.868V101.734Z" fill="white"/>
<path d="M380.271 107.654H377.054V101.605H375.638C375.123 101.605 374.609 101.605 374.223 102.12C373.708 102.635 373.579 103.278 373.45 103.922L373.193 104.823C372.807 106.238 372.678 106.624 372.55 106.882C372.292 107.525 371.906 107.783 371.649 107.783H368.56C368.817 107.525 369.075 107.139 369.332 106.624C369.59 106.11 369.718 105.595 370.104 104.437C370.49 103.278 370.748 102.635 371.134 101.991C371.391 101.605 371.906 100.962 372.807 100.833V100.704C372.163 100.576 371.263 100.19 370.748 99.6749C369.847 98.9027 369.847 97.8732 369.847 97.3584C369.847 95.814 370.49 94.7845 371.263 94.2697C372.421 93.2401 374.223 93.2401 375.51 93.2401H380.657V107.654H380.271ZM374.995 95.6853C374.48 95.6853 373.836 95.6853 373.45 96.2001C373.064 96.5862 373.064 97.101 373.064 97.3584C373.064 97.8732 373.193 98.3879 373.579 98.6453C374.094 99.0314 374.609 99.1601 374.995 99.1601H377.054V95.6853H374.995Z" fill="white"/>
<path d="M389.023 93.2401H398.289V95.814H392.369V98.774H393.398C394.556 98.774 396.358 98.774 397.903 99.6749C399.576 100.833 399.704 102.506 399.704 103.15C399.704 104.437 399.061 105.724 398.16 106.496C396.873 107.654 395.071 107.654 393.656 107.654H389.151V93.2401H389.023ZM392.24 105.209H394.17C394.814 105.209 395.457 104.823 395.715 104.565C395.972 104.308 396.23 103.793 396.23 103.278C396.23 102.635 396.101 102.249 395.586 101.863C395.071 101.477 394.556 101.348 394.042 101.348H392.369V105.209H392.24Z" fill="white"/>
<path d="M404.723 93.2401L406.783 97.3584C407.297 98.3879 407.683 99.1601 407.941 100.576H408.07C408.456 99.2888 408.713 98.3879 409.099 97.4871L410.901 93.2401H413.99L409.228 104.437C408.842 105.209 408.584 105.981 407.941 106.753C407.04 107.783 406.139 107.911 404.981 107.911C404.337 107.911 403.437 107.783 402.278 107.139L403.308 104.951C403.823 105.338 404.337 105.466 404.852 105.466C405.496 105.466 405.753 105.08 406.139 104.308L406.397 103.664L400.991 93.2401H404.723Z" fill="white"/>
<path d="M425.701 105.209H427.374V110.485H424.414V107.654H416.949V110.485H413.99V105.209H415.148C415.92 104.179 416.306 103.278 416.563 101.863C417.078 99.8036 417.207 97.6158 417.207 96.5862V93.1115H425.701V105.209ZM422.483 95.6854H419.91V97.3584C419.781 99.5462 419.652 101.091 419.395 102.249C419.137 103.536 418.623 104.565 418.236 105.209H422.483V95.6854Z" fill="white"/>
<path d="M431.878 93.2401L433.937 97.3584C434.452 98.3879 434.838 99.1601 435.096 100.576H435.224C435.61 99.2888 435.868 98.3879 436.254 97.4871L438.056 93.2401H441.144L436.383 104.437C435.996 105.209 435.739 105.981 435.096 106.753C434.195 107.783 433.294 107.911 432.136 107.911C431.492 107.911 430.591 107.783 429.433 107.139L430.463 104.951C430.977 105.338 431.492 105.466 432.007 105.466C432.65 105.466 432.908 105.08 433.294 104.308L433.551 103.664L428.146 93.2401H431.878Z" fill="white"/>
<path d="M446.035 93.2401V105.209H449.123V93.2401H452.341V105.209H455.43V93.2401H458.647V105.209H460.32V110.485H457.36V107.654H442.817V93.1115H446.035V93.2401Z" fill="white"/>
<path d="M471.259 95.6854H466.111V98.9028H471.259V101.348H466.111V105.209H472.031V107.654H462.894V93.1115H471.259V95.6854Z" fill="white"/>
<path d="M483.099 95.6854H477.951V98.9028H483.099V101.348H477.951V105.209H483.871V107.654H474.734V93.1115H483.099V95.6854Z" fill="white"/>
<path fill-rule="evenodd" clip-rule="evenodd" d="M517.461 87.1914C540.24 69.6888 552.337 62.8679 579.492 62.4818L573.701 70.847C572.543 73.1636 570.87 73.1635 569.068 72.9061C549.635 72.7775 536.25 74.1931 512.828 92.0818L517.461 87.1914Z" fill="url(#paint0_linear_129_47286)"/>
<path fill-rule="evenodd" clip-rule="evenodd" d="M518.619 85.7757C540.883 64.6696 559.802 55.1462 576.275 53.087C577.819 51.1566 582.838 44.207 584.383 41.8905C547.318 48.3253 530.33 73.807 518.619 85.7757Z" fill="url(#paint1_linear_129_47286)"/>
<path fill-rule="evenodd" clip-rule="evenodd" d="M518.619 85.9043C518.362 86.1617 517.59 87.0626 516.817 87.8348C516.56 88.0922 516.174 88.607 516.174 88.607C520.55 85.0035 529.301 78.1826 537.28 73.5496C545.259 69.0452 555.04 65.313 568.81 63.2539C570.097 61.7096 574.344 56.0469 576.275 52.9583C550.793 56.8191 533.934 71.6191 518.619 85.9043Z" fill="url(#paint2_linear_129_47286)"/>
<path fill-rule="evenodd" clip-rule="evenodd" d="M573.057 71.8765C573.315 70.9757 573.83 70.2035 571.127 68.5304C567.652 66.4713 566.494 67.3722 567.266 65.313C567.91 63.64 574.988 60.5513 580.264 62.4817C580.393 62.353 575.631 67.887 573.057 71.8765Z" fill="url(#paint3_linear_129_47286)"/>
<path fill-rule="evenodd" clip-rule="evenodd" d="M593.263 39.4453C587.857 39.9601 584.64 41.5044 582.452 44.207L575.245 54.5027C576.918 52.9583 581.68 52.1862 586.828 52.1862H587.6C587.729 52.1862 587.986 52.1862 588.115 52.1862C588.887 52.1862 589.659 52.0575 590.431 52.0575C597.896 51.9288 608.063 50.7705 614.24 43.3061L622.991 30.1792L624.021 28.7635C616.17 39.3166 598.797 38.4157 593.263 39.4453Z" fill="url(#paint4_linear_129_47286)"/>
<path fill-rule="evenodd" clip-rule="evenodd" d="M606.647 27.4766C604.331 27.8627 599.183 27.734 594.936 30.5653C590.56 33.3966 585.155 40.3462 582.71 43.9496C585.026 41.247 588.501 40.4749 593.005 39.8314C597.638 39.3166 604.202 39.4453 608.964 38.6731C613.597 38.1584 619.002 35.9705 623.892 29.021L631.614 17.4384C623.378 25.9323 614.369 26.3184 606.647 27.4766Z" fill="url(#paint5_linear_129_47286)"/>
<path fill-rule="evenodd" clip-rule="evenodd" d="M597.51 50.7706C591.976 51.5428 585.541 51.6715 583.739 51.9289C580.651 51.9289 576.404 53.0871 575.245 54.6315C571.642 59.1358 568.296 63.3828 567.395 65.3132C569.454 63.2541 576.661 63.3828 585.284 62.9967C593.906 62.6106 602.529 58.621 609.478 50.5132L614.755 42.9202C611.151 47.5532 604.974 49.6123 597.51 50.7706Z" fill="url(#paint6_linear_129_47286)"/>
<path fill-rule="evenodd" clip-rule="evenodd" d="M415.92 74.3216L426.859 51.4138H427.117L439.214 74.3216H451.826L435.61 44.8503H425.057L410.386 74.3216H415.92Z" fill="white"/>
<path fill-rule="evenodd" clip-rule="evenodd" d="M242.567 61.4522L259.812 61.1948C259.555 65.3131 257.367 67.6296 256.209 68.6592C253.377 70.9757 249.259 71.1044 247.329 71.1044C244.497 71.1044 242.052 70.7183 239.478 69.174C237.934 68.1444 236.003 66.6 235.103 65.1844L234.33 64.0261L228.668 67.3722C230.341 69.3027 232.915 71.2331 235.617 72.6487C239.736 74.7079 243.596 75.2227 248.23 75.2227C253.249 75.2227 260.842 74.4505 266.504 70.2035C270.365 67.2435 272.167 63.1253 272.167 59.5218C272.167 55.9183 270.365 51.8 266.504 48.84C261.743 45.1079 254.664 43.8209 248.358 43.8209C244.24 43.8209 240.508 44.207 236.776 45.6227C233.558 46.7809 231.113 48.3253 228.668 50.5131L234.33 53.7305L235.746 52.1861C236.904 50.8992 238.706 49.7409 240.508 48.9687C242.824 47.9392 245.141 47.6818 247.586 47.6818C252.605 47.6818 255.436 49.3548 257.11 50.8992C258.139 51.9287 259.555 53.8592 259.941 56.8192L242.696 56.5618V61.4522H242.567Z" fill="white"/>
<path fill-rule="evenodd" clip-rule="evenodd" d="M471.645 47.5531C474.477 47.5531 477.694 48.1966 480.139 51.414C482.07 53.9879 482.456 56.9479 482.456 59.6505C482.456 62.2244 482.07 65.1844 480.139 67.7583C477.694 70.9757 474.477 71.6192 471.645 71.6192C468.814 71.6192 465.596 70.9757 463.151 67.7583C461.221 65.1844 460.835 62.2244 460.835 59.6505C460.835 57.0766 461.221 53.9879 463.151 51.414C465.725 48.1966 468.814 47.5531 471.645 47.5531ZM471.645 75.2227C476.922 75.2227 484.257 73.9357 489.148 70.2035C493.009 67.2435 494.939 63.1253 494.939 59.5218C494.939 55.9183 493.137 51.8 489.148 48.84C484.257 45.1079 476.922 43.8209 471.645 43.8209C466.497 43.8209 459.033 45.1079 454.143 48.84C450.282 51.8 448.48 55.9183 448.48 59.5218C448.48 63.1253 450.282 67.2435 454.143 70.2035C459.162 73.9357 466.497 75.2227 471.645 75.2227Z" fill="white"/>
<path fill-rule="evenodd" clip-rule="evenodd" d="M377.311 52.1861C378.341 51.8 379.628 51.6713 380.915 51.6713H382.202V66.9861H380.915C379.628 66.9861 378.341 66.7287 377.311 66.4713C376.282 66.2139 375.51 65.6991 374.737 65.1843C373.45 64.1547 372.421 62.353 372.421 59.393C372.421 56.5617 373.45 54.76 374.737 53.6017C375.381 52.9582 376.282 52.5721 377.311 52.1861ZM397.516 70.8469C403.823 70.4608 407.04 68.9165 408.842 67.7582C412.188 65.6991 413.603 62.6104 413.603 59.393C413.603 55.0174 410.901 52.4434 408.842 51.0278C405.882 48.9687 401.635 48.1965 397.516 47.9391C396.358 47.8104 395.329 47.8104 394.17 47.8104H393.012V43.6921H381.816V47.8104H380.657C379.499 47.8104 378.47 47.8104 377.311 47.9391C373.064 48.1965 368.946 48.9687 365.986 51.0278C363.798 52.4434 361.224 55.0174 361.224 59.393C361.224 62.7391 362.769 65.6991 365.986 67.7582C367.659 68.9165 371.005 70.4608 377.311 70.8469C378.341 70.8469 379.499 70.9756 380.657 70.9756H381.816V75.3513H393.012V70.9756H394.17C395.457 70.8469 396.487 70.8469 397.516 70.8469ZM397.516 52.1861C398.546 52.4435 399.318 52.9582 400.09 53.473C401.377 54.5026 402.407 56.3043 402.407 59.2643C402.407 62.2243 401.377 64.0261 400.09 65.0556C399.447 65.6991 398.546 66.0852 397.516 66.3426C396.358 66.7287 395.2 66.8574 393.913 66.8574H392.626V51.5426H393.913C395.2 51.6713 396.487 51.9287 397.516 52.1861Z" fill="white"/>
<path fill-rule="evenodd" clip-rule="evenodd" d="M335.485 47.5531C338.316 47.5531 341.534 48.1966 343.979 51.414C345.91 53.9879 346.296 56.9479 346.296 59.6505C346.296 62.2244 345.91 65.1844 343.979 67.7583C341.534 70.9757 338.188 71.6192 335.485 71.6192C332.654 71.6192 329.436 70.9757 326.991 67.7583C324.932 65.1844 324.675 62.2244 324.675 59.6505C324.675 57.0766 324.932 53.9879 326.991 51.414C329.436 48.1966 332.654 47.5531 335.485 47.5531ZM335.485 75.2227C340.633 75.2227 348.097 73.9357 352.988 70.2035C356.849 67.2435 358.65 63.1253 358.65 59.5218C358.65 55.9183 356.849 51.8 352.988 48.84C348.097 45.1079 340.762 43.8209 335.485 43.8209C330.209 43.8209 322.873 45.1079 317.983 48.84C314.122 51.8 312.32 55.9183 312.32 59.5218C312.32 63.1253 314.122 67.2435 317.983 70.2035C322.873 73.9357 330.337 75.2227 335.485 75.2227Z" fill="white"/>
<path fill-rule="evenodd" clip-rule="evenodd" d="M293.144 63.5112H295.203C300.609 63.5112 304.341 62.8677 307.043 61.1947C310.39 59.1356 311.162 56.1755 311.162 53.9877C311.162 51.7999 310.39 48.8399 307.043 46.9095C304.341 45.3651 300.737 44.8503 294.817 44.8503H293.273H275.642V74.4503H286.838V63.6399H293.144V63.5112ZM293.144 49.3547C294.56 49.3547 296.233 49.6121 297.52 50.5129C299.193 51.6712 299.45 53.2156 299.45 54.1164C299.45 55.0173 299.193 56.6903 297.391 57.8486C296.104 58.7495 294.56 59.0069 293.144 59.1355H291.986H286.838V49.226H291.986C292.372 49.226 292.758 49.226 293.144 49.3547Z" fill="white"/>
<path fill-rule="evenodd" clip-rule="evenodd" d="M206.403 51.7999L211.937 61.8382H200.87L206.146 51.5426H206.275L206.403 51.7999ZM214.254 65.8278L219.016 74.3217H231.499L214.511 44.7217H204.087L188.643 74.3217H194.177L198.553 65.8278H214.254Z" fill="white"/>
<path fill-rule="evenodd" clip-rule="evenodd" d="M493.137 49.226H505.106V74.3216H516.431V49.226H528.4V44.8503H493.137V49.226Z" fill="white"/>
</g>
</g>
<defs>
<linearGradient id="paint0_linear_129_47286" x1="528.699" y1="60.1128" x2="556.626" y2="87.6849" gradientUnits="userSpaceOnUse">
<stop stop-color="#C00808"/>
<stop offset="0.3" stop-color="#E3000F"/>
<stop offset="0.3292" stop-color="#E5221C"/>
<stop offset="0.3882" stop-color="#EA4E3F"/>
<stop offset="0.4709" stop-color="#F1897F"/>
<stop offset="0.5292" stop-color="#F6B1B5"/>
<stop offset="0.553" stop-color="#F39892"/>
<stop offset="0.5885" stop-color="#EE7466"/>
<stop offset="0.6237" stop-color="#EA5444"/>
<stop offset="0.6577" stop-color="#E7382C"/>
<stop offset="0.6903" stop-color="#E5221C"/>
<stop offset="0.7209" stop-color="#E30C12"/>
<stop offset="0.7475" stop-color="#E3000F"/>
<stop offset="1" stop-color="#C00808"/>
</linearGradient>
<linearGradient id="paint1_linear_129_47286" x1="517.987" y1="39.4857" x2="585.476" y2="88.5189" gradientUnits="userSpaceOnUse">
<stop stop-color="white"/>
<stop offset="0.34" stop-color="white"/>
<stop offset="0.54" stop-color="white"/>
<stop offset="0.91" stop-color="#D3DAF0"/>
<stop offset="1" stop-color="#D3DAF0"/>
</linearGradient>
<linearGradient id="paint2_linear_129_47286" x1="529.752" y1="54.4712" x2="567.13" y2="91.3698" gradientUnits="userSpaceOnUse">
<stop stop-color="#004993"/>
<stop offset="0.1296" stop-color="#004993"/>
<stop offset="0.1708" stop-color="#0E539C"/>
<stop offset="0.3067" stop-color="#5577B7"/>
<stop offset="0.4079" stop-color="#7A91C9"/>
<stop offset="0.4622" stop-color="#889CD0"/>
<stop offset="0.4697" stop-color="#8197CD"/>
<stop offset="0.5489" stop-color="#3E69AD"/>
<stop offset="0.6069" stop-color="#04519A"/>
<stop offset="0.6371" stop-color="#004993"/>
<stop offset="0.9166" stop-color="#004993"/>
</linearGradient>
<linearGradient id="paint3_linear_129_47286" x1="566.684" y1="60.5495" x2="581.765" y2="70.3431" gradientUnits="userSpaceOnUse">
<stop stop-color="#C00808"/>
<stop offset="0.47" stop-color="#E3000F"/>
<stop offset="1" stop-color="#F6B1B5"/>
</linearGradient>
<linearGradient id="paint4_linear_129_47286" x1="579.49" y1="24.7329" x2="621.452" y2="59.6201" gradientUnits="userSpaceOnUse">
<stop stop-color="#D3DDF2"/>
<stop offset="0.0730286" stop-color="#D3DDF2"/>
<stop offset="0.1174" stop-color="#BBC8E7"/>
<stop offset="0.2114" stop-color="#7F96C9"/>
<stop offset="0.3463" stop-color="#0D539B"/>
<stop offset="0.3708" stop-color="#004993"/>
<stop offset="0.4288" stop-color="#004E97"/>
<stop offset="0.5195" stop-color="#215AA0"/>
<stop offset="0.6316" stop-color="#4B71B1"/>
<stop offset="0.7606" stop-color="#7E96C9"/>
<stop offset="0.9024" stop-color="#BDC9E7"/>
<stop offset="0.9494" stop-color="#D3DDF2"/>
<stop offset="1" stop-color="#D3DDF2"/>
</linearGradient>
<linearGradient id="paint5_linear_129_47286" x1="588.178" y1="14.8236" x2="627.922" y2="47.8668" gradientUnits="userSpaceOnUse">
<stop stop-color="white"/>
<stop offset="0.1742" stop-color="white"/>
<stop offset="0.2352" stop-color="#FAFAFD"/>
<stop offset="0.3175" stop-color="#EBEEF8"/>
<stop offset="0.3539" stop-color="#E2E6F5"/>
<stop offset="0.4512" stop-color="#EFF1FA"/>
<stop offset="0.5831" stop-color="#FBFCFE"/>
<stop offset="0.7" stop-color="white"/>
<stop offset="1" stop-color="white"/>
</linearGradient>
<linearGradient id="paint6_linear_129_47286" x1="572.806" y1="38.8648" x2="608.218" y2="68.3071" gradientUnits="userSpaceOnUse">
<stop stop-color="#F6B1B5"/>
<stop offset="0.0561829" stop-color="#F6B1B5"/>
<stop offset="0.071738" stop-color="#F4A4A3"/>
<stop offset="0.1265" stop-color="#EE7769"/>
<stop offset="0.1763" stop-color="#EA4E3F"/>
<stop offset="0.2193" stop-color="#E62F24"/>
<stop offset="0.2541" stop-color="#E41315"/>
<stop offset="0.2761" stop-color="#E3000F"/>
<stop offset="0.294" stop-color="#E0010E"/>
<stop offset="0.4383" stop-color="#C9070A"/>
<stop offset="0.5169" stop-color="#C00808"/>
<stop offset="0.574" stop-color="#C9070A"/>
<stop offset="0.6789" stop-color="#E0010E"/>
<stop offset="0.6919" stop-color="#E3000F"/>
<stop offset="0.8914" stop-color="#F4A7A7"/>
<stop offset="1" stop-color="#F6B1B5"/>
</linearGradient>
<clipPath id="clip0_129_47286">
<rect width="632" height="111" fill="white"/>
</clipPath>
<clipPath id="clip1_129_47286">
<rect width="169.913" height="110.6" fill="white" transform="translate(0.386597)"/>
</clipPath>
<clipPath id="clip2_129_47286">
<rect width="444" height="93.9478" fill="white" transform="translate(188 17.0521)"/>
</clipPath>
</defs>
</svg>
